<svg xmlns="http://www.w3.org/2000/svg" width="72.344" height="32.115" xmlns:v="https://vecta.io/nano" fill="#1d1d1d"><path d="M0 0h14.16c5.471 0 9.797 1.499 12.976 4.495s4.771 6.869 4.771 11.62c0 4.98-1.612 8.893-4.839 11.735s-7.828 4.264-13.804 4.264H0V0zm8 5.885V26.23h5.218c3.387 0 5.978-.931 7.769-2.793s2.691-4.318 2.691-7.368c0-3.157-.909-5.643-2.724-7.459s-4.426-2.725-7.829-2.725H8zm47.066 6.023L65.39 0h6.955v32.115h-8V12.069L55.67 22.137h-1.205l-8.673-10.068v20.046h-8V0h6.946l10.328 11.908z"/></svg>