<svg xmlns="http://www.w3.org/2000/svg" width="24" height="24" xmlns:v="https://vecta.io/nano"><path d="M15.233 5.488L12 5.442l-3.232.046c-2.17.099-3.181 1.127-3.279 3.279L5.441 12l.047 3.233c.099 2.148 1.106 3.18 3.279 3.279l3.233.047 3.233-.046c2.17-.099 3.18-1.129 3.279-3.279l.046-3.233-.046-3.232c-.099-2.153-1.111-3.182-3.279-3.281zM12 16.108A4.11 4.11 0 0 1 7.892 12 4.11 4.11 0 0 1 12 7.892 4.11 4.11 0 0 1 16.108 12 4.11 4.11 0 0 1 12 16.108zm4.271-7.418a.96.96 0 1 1 0-1.92.96.96 0 1 1 0 1.92zM14.667 12A2.67 2.67 0 0 1 12 14.667 2.67 2.67 0 0 1 9.333 12 2.67 2.67 0 0 1 12 9.333 2.67 2.67 0 0 1 14.667 12zM19 0H5a5 5 0 0 0-5 5v14a5 5 0 0 0 5 5h14a5 5 0 0 0 5-5V5a5 5 0 0 0-5-5zm.952 15.298c-.132 2.909-1.751 4.521-4.653 4.654L12 20c-2.173 0-2.444-.009-3.298-.048-2.908-.133-4.52-1.748-4.654-4.654L4 12l.048-3.298c.134-2.908 1.748-4.521 4.654-4.653L12 4l3.299.048c2.908.133 4.523 1.751 4.653 4.653L20 12l-.048 3.298z"/></svg>