<svg xmlns="http://www.w3.org/2000/svg" width="24" height="24" xmlns:v="https://vecta.io/nano" fill="#1d1d1d"><path d="M12.036 5.339a6.6 6.6 0 0 0-6.593 6.589c-.001 1.483.434 2.594 1.164 3.756l-.666 2.432 2.494-.654c1.117.663 2.184 1.061 3.595 1.061 3.632 0 6.591-2.956 6.592-6.59.003-3.641-2.942-6.593-6.586-6.594zm3.876 9.423c-.165.463-.957.885-1.337.942-.341.051-.773.072-1.248-.078l-1.129-.417c-1.987-.858-3.285-2.859-3.384-2.991s-.809-1.074-.809-2.049.512-1.454.693-1.653.396-.25.528-.25l.38.007c.122.006.285-.046.446.34l.611 1.471c.049.099.083.215.016.347s-.099.215-.198.33l-.297.347c-.099.099-.202.206-.087.404s.513.847 1.102 1.372c.757.675 1.395.884 1.593.983s.314.083.429-.05l.627-.777c.132-.199.264-.165.446-.099s1.156.545 1.354.645.33.149.38.231.049.482-.116.945zM19 0H5a5 5 0 0 0-5 5v14a5 5 0 0 0 5 5h14a5 5 0 0 0 5-5V5a5 5 0 0 0-5-5zm-6.967 19.862c-1.327 0-2.634-.333-3.792-.965L4.038 20l1.125-4.108c-.694-1.202-1.059-2.566-1.058-3.964A7.94 7.94 0 0 1 12.033 4a7.88 7.88 0 0 1 5.609 2.325 7.88 7.88 0 0 1 2.32 5.609c-.002 4.372-3.559 7.928-7.929 7.928z"/></svg>