<svg xmlns="http://www.w3.org/2000/svg" viewBox="0 0 14 14" xmlns:v="https://vecta.io/nano"><path d="M1.176 1.298c-.301.301-.226.647.301 1.429a7.19 7.19 0 0 1 .707 1.399c.121.376.361.888.526 1.143.301.421.301.512.105 1.279-.121.481-.165 1.083-.105 1.459.09.632.602 1.55.918 1.655.271.09.662-.391.677-.827 0-.376.015-.391.18-.121.286.466 1.188 1.459 1.264 1.384.03-.03-.165-.421-.451-.857l-.707-1.309c-.165-.451-.226-.481-.421-.271-.121.121-.271.466-.316.782-.121.722-.391.812-.602.196s-.211-1.67 0-2.392c.15-.497.135-.632-.121-1.008-.165-.226-.421-.767-.557-1.203-.135-.421-.451-1.053-.707-1.384-.587-.827-.587-1.128.03-1.008.256.045.647.226.888.391a1.74 1.74 0 0 0 .857.301c.722 0 1.986.707 2.903 1.625.707.707 1.068 1.279 1.836 2.828.903 1.835.978 1.941 1.535 2.121.662.226 2.046 1.068 2.046 1.249 0 .06-.346.15-.767.18-1.128.121-1.234.331-.497.993a10.04 10.04 0 0 0 1.459 1.023l.842.481-.391-.497c-.226-.271-.692-.692-1.053-.918s-.647-.466-.647-.526.256-.165.572-.211c.842-.15 1.083-.226 1.083-.376 0-.226-1.519-1.369-2.241-1.685-.617-.286-.692-.406-1.489-2.046-.707-1.504-.993-1.926-1.895-2.828C5.779 2.59 4.982 2.094 3.959 1.943c-.346-.06-.827-.241-1.038-.391-.497-.376-1.504-.512-1.745-.256z"/></svg>