<svg xmlns="http://www.w3.org/2000/svg" width="24" height="24" xmlns:v="https://vecta.io/nano"><path d="M13 17h4v1h-4v-1zm0-1h4v-1h-4v1zm9-14v22H2V2h3C6.23 2 7.181.916 8 0h8c.82.916 1.771 2 3 2h3zM11 3a1 1 0 1 0 2 0 1 1 0 1 0-2 0zm9 1h-4l-2 2h-3.897L8 4H4v18h16V4zm-7 9h4v-1h-4v1zm0-2h4v-1h-4v1zm-6.5.077l.386-.355c.449.218.735.383 1.241.745.952-1.081 1.58-1.627 2.748-2.355L11 9.4c-.963.841-1.669 1.777-2.686 3.6-.626-.738-1.044-1.208-1.814-1.923zm.098 5l.386-.355c.449.218.735.383 1.241.745.952-1.081 1.58-1.627 2.748-2.355l.125.289c-.963.841-1.669 1.777-2.686 3.6a19.47 19.47 0 0 0-1.814-1.924z"/></svg>