<svg xmlns="http://www.w3.org/2000/svg" width="16" height="16" xmlns:v="https://vecta.io/nano"><path d="M12 7V5l-1.2-.4c-.1-.3-.2-.7-.4-1l.6-1.2-1.5-1.3-1.1.5c-.3-.2-.6-.3-1-.4L7 0H5l-.4 1.2c-.3.1-.7.2-1 .4l-1.1-.5-1.4 1.4.6 1.2c-.2.3-.3.6-.4 1L0 5v2l1.2.4c.1.3.2.7.4 1l-.5 1.1 1.4 1.4 1.2-.6c.3.2.6.3 1 .4L5 12h2l.4-1.2c.3-.1.7-.2 1-.4l1.2.6L11 9.6l-.6-1.2c.2-.3.3-.6.4-1L12 7zM3 6c0-1.7 1.3-3 3-3s3 1.3 3 3-1.3 3-3 3-3-1.3-3-3zm4.5 0a1.5 1.5 0 1 1-3 0 1.5 1.5 0 1 1 3 0z"/><path d="M16 3V2h-.6c0-.2-.1-.4-.2-.5l.4-.4-.7-.7-.4.4c-.2-.1-.3-.2-.5-.2V0h-1v.6c-.2 0-.4.1-.5.2l-.4-.4-.7.7.4.4c-.1.2-.2.3-.2.5H11v1h.6c0 .2.1.4.2.5l-.4.4.7.7.4-.4c.2.1.3.2.5.2V5h1v-.6c.2 0 .4-.1.5-.2l.4.4.7-.7-.4-.4c.1-.2.2-.3.2-.5h.6zm-2.5.5a.94.94 0 0 1-1-1 .94.94 0 0 1 1-1 .94.94 0 0 1 1 1 .94.94 0 0 1-1 1zm1.9 8.3c-.1-.3-.2-.6-.4-.9l.3-.6-.7-.7-.5.4c-.3-.2-.6-.3-.9-.4L13 9h-1l-.2.6c-.3.1-.6.2-.9.4l-.6-.3-.7.7.3.6c-.2.3-.3.6-.4.9L9 12v1l.6.2c.1.3.2.6.4.9l-.3.6.7.7.6-.3c.3.2.6.3.9.4l.1.5h1l.2-.6c.3-.1.6-.2.9-.4l.6.3.7-.7-.4-.5c.2-.3.3-.6.4-.9l.6-.2v-1l-.6-.2zM12.5 14a1.54 1.54 0 0 1-1.5-1.5 1.54 1.54 0 0 1 1.5-1.5 1.54 1.54 0 0 1 1.5 1.5 1.54 1.54 0 0 1-1.5 1.5z"/></svg>